<svg width="720" height="480" viewBox="0 0 720 480" fill="none" xmlns="http://www.w3.org/2000/svg">
  <defs>
    <linearGradient id="bg" x1="0" y1="0" x2="720" y2="480" gradientUnits="userSpaceOnUse">
      <stop stop-color="#FFD6E8"/>
      <stop offset="1" stop-color="#FFEAF3"/>
    </linearGradient>
    <linearGradient id="heart" x1="360" y1="120" x2="360" y2="350" gradientUnits="userSpaceOnUse">
      <stop stop-color="#FF4D8D"/>
      <stop offset="1" stop-color="#D81B60"/>
    </linearGradient>
  </defs>

  <rect width="720" height="480" rx="28" fill="url(#bg)"/>

  <circle cx="130" cy="98" r="22" fill="#FFC2D9"/>
  <circle cx="610" cy="390" r="18" fill="#FFC2D9"/>
  <circle cx="590" cy="88" r="12" fill="#FFB3D2"/>

  <path d="M360 347C312 307 230 252 230 187C230 146 261 116 302 116C328 116 350 128 360 148C370 128 392 116 418 116C459 116 490 146 490 187C490 252 408 307 360 347Z" fill="url(#heart)"/>

  <text x="360" y="410" text-anchor="middle" fill="#AD1D55" font-size="34" font-family="Segoe UI, Arial, sans-serif" font-weight="700">Happy Birthday</text>
  <text x="360" y="444" text-anchor="middle" fill="#C2255C" font-size="22" font-family="Segoe UI, Arial, sans-serif">My Special Person ✨</text>
</svg>
